<?xml version="1.0" standalone="no"?>
<!DOCTYPE svg PUBLIC "-//W3C//DTD SVG 20010904//EN"
 "http://www.w3.org/TR/2001/REC-SVG-20010904/DTD/svg10.dtd">
<svg version="1.0" xmlns="http://www.w3.org/2000/svg"
 width="512.000000pt" height="512.000000pt" viewBox="0 0 512.000000 512.000000"
 preserveAspectRatio="xMidYMid meet">

<g transform="translate(0.000000,512.000000) scale(0.100000,-0.100000)"
fill="#000000" stroke="none">
<path d="M2417 4029 c-132 -10 -321 -40 -464 -74 -139 -33 -419 -126 -503
-168 -63 -31 -65 -34 -68 -72 -3 -40 -2 -40 188 -218 104 -98 190 -181 190
-185 0 -4 -60 -40 -133 -80 -73 -40 -181 -106 -242 -146 l-110 -74 -60 41
c-33 23 -118 88 -188 145 -194 156 -282 219 -361 256 -133 64 -275 86 -310 47
-48 -53 -82 -235 -71 -381 15 -189 66 -373 140 -506 l36 -65 -50 -102 c-108
-217 -138 -473 -80 -689 15 -59 31 -68 112 -68 143 0 322 62 454 156 79 56
193 170 248 247 22 31 45 55 50 53 6 -2 55 -35 110 -74 128 -90 289 -187 438
-263 l118 -60 -156 -162 c-132 -138 -155 -167 -155 -193 0 -37 16 -52 95 -87
120 -52 211 -71 335 -71 98 0 126 4 194 28 112 38 151 63 372 237 6 5 26 4 45
-1 79 -22 278 -50 419 -60 275 -18 573 15 799 89 413 136 768 431 966 803 100
189 83 322 -68 556 -187 288 -475 522 -803 653 -57 22 -101 50 -168 106 -277
233 -577 351 -970 383 -143 11 -191 11 -349 -1z m353 -139 c135 -12 275 -40
386 -75 85 -28 286 -122 319 -150 19 -16 19 -16 -20 -10 -22 3 -112 8 -200 12
-375 14 -786 -65 -1198 -229 -82 -33 -152 -58 -156 -56 -4 2 -80 71 -168 153
-185 174 -187 148 17 216 349 115 718 165 1020 139z m750 -389 c130 -23 261
-59 340 -93 l53 -23 -44 -29 c-64 -43 -165 -142 -215 -213 -52 -72 -115 -203
-137 -288 -77 -285 -16 -625 155 -878 50 -73 155 -185 209 -222 36 -26 39 -30
24 -41 -9 -7 -65 -28 -125 -48 -675 -220 -1580 -28 -2366 501 -96 65 -277 206
-306 239 -49 55 -62 167 -29 239 22 50 52 79 166 168 495 384 1132 647 1715
707 139 14 429 5 560 -19z m-2931 -167 c85 -39 153 -86 307 -211 60 -49 138
-110 174 -137 36 -27 69 -53 74 -57 5 -5 -3 -18 -20 -31 -74 -57 -139 -128
-168 -183 -29 -56 -31 -67 -31 -160 0 -93 2 -105 33 -167 20 -41 50 -82 78
-107 l46 -40 -48 -63 c-108 -141 -235 -245 -363 -299 -81 -34 -197 -57 -212
-42 -5 5 -13 57 -16 114 -9 176 31 330 134 510 23 42 43 84 43 94 0 9 -22 50
-49 90 -54 81 -101 201 -128 327 -20 96 -24 336 -5 380 10 24 15 27 44 22 18
-3 66 -21 107 -40z m3524 -51 c165 -106 355 -291 460 -449 148 -223 158 -299
60 -469 -109 -190 -290 -387 -462 -504 l-94 -64 -46 24 c-67 35 -219 191 -270
276 -94 158 -134 311 -133 503 1 302 122 520 374 673 34 20 63 37 65 37 2 0
22 -12 46 -27z m-2047 -1621 c38 -16 127 -48 198 -72 l129 -43 -24 -19 c-71
-58 -175 -118 -240 -139 -102 -33 -236 -33 -331 0 -38 12 -68 25 -68 28 0 8
252 273 260 273 4 0 38 -13 76 -28z"/>
<path d="M4008 2829 c-49 -14 -117 -74 -139 -123 -23 -50 -24 -134 -3 -184 64
-155 276 -185 383 -55 91 111 56 279 -71 344 -47 24 -120 32 -170 18z m123
-158 c20 -20 29 -39 29 -61 0 -37 -47 -90 -80 -90 -52 0 -89 38 -90 92 0 28 7
42 31 62 40 34 74 33 110 -3z"/>
</g>
</svg>
