<?xml version="1.0" standalone="no"?>
<!DOCTYPE svg PUBLIC "-//W3C//DTD SVG 20010904//EN"
 "http://www.w3.org/TR/2001/REC-SVG-20010904/DTD/svg10.dtd">
<svg version="1.0" xmlns="http://www.w3.org/2000/svg"
 width="611.000000pt" height="611.000000pt" viewBox="0 0 611.000000 611.000000"
 preserveAspectRatio="xMidYMid meet">

<g transform="translate(0.000000,611.000000) scale(0.100000,-0.100000)"
fill="#000000" stroke="none">
<path d="M3070 4484 c-172 -10 -386 -37 -490 -63 -318 -80 -561 -215 -603
-336 -10 -28 -21 -41 -40 -46 -14 -4 -49 -22 -79 -41 -106 -68 -139 -89 -174
-109 -43 -24 -150 -109 -220 -176 -48 -45 -124 -134 -124 -145 0 -2 -28 -48
-63 -100 -34 -53 -82 -130 -106 -173 -46 -80 -93 -203 -84 -218 3 -4 6 -38 8
-75 3 -62 23 -131 69 -237 18 -43 66 -118 78 -123 5 -2 8 -9 8 -16 0 -14 83
-129 117 -163 11 -11 22 -24 24 -29 5 -12 173 -161 229 -204 25 -19 56 -45 70
-57 54 -48 73 -63 83 -63 6 0 18 -6 26 -14 33 -30 272 -142 361 -171 30 -9 60
-20 65 -25 6 -4 31 -11 57 -14 26 -4 50 -11 53 -17 4 -5 10 -7 15 -4 5 3 33
-17 62 -45 94 -91 255 -153 393 -153 84 0 170 8 195 17 8 3 33 8 55 10 22 3
51 8 65 11 14 3 45 10 70 15 25 5 83 19 130 30 109 26 115 28 180 41 88 19
198 56 244 83 48 28 110 104 156 189 32 60 70 184 70 229 0 16 4 28 9 28 12 0
143 131 231 230 99 111 179 194 184 189 2 -2 18 -33 36 -69 18 -36 62 -110 99
-165 36 -55 79 -125 96 -156 65 -122 127 -197 215 -259 66 -47 68 -49 161 -79
79 -27 188 -32 213 -10 87 73 98 141 40 244 -13 24 -24 55 -24 68 0 34 64 89
150 131 133 65 230 172 230 253 0 62 -70 154 -146 193 -52 27 -104 73 -104 93
0 26 25 76 55 111 83 97 117 196 89 263 -19 43 -83 80 -173 96 -40 8 -76 18
-81 23 -5 5 5 42 26 88 45 103 46 153 4 195 -47 46 -113 57 -227 37 -107 -19
-287 -125 -388 -229 -95 -97 -209 -279 -245 -391 -15 -47 -15 -47 -80 73 -25
48 -73 113 -116 159 -81 88 -242 230 -319 281 -50 34 -50 34 -51 90 0 51 -24
150 -58 241 -8 19 -24 67 -36 105 -33 105 -90 214 -135 258 -42 41 -101 72
-169 87 -48 10 -289 19 -386 14z m336 -57 c52 -8 114 -30 125 -44 6 -7 17 -13
23 -13 13 0 55 -43 72 -74 66 -116 112 -257 160 -493 2 -13 0 -23 -6 -23 -6 0
-54 26 -108 58 -53 32 -117 70 -142 83 -25 13 -47 26 -50 29 -11 11 -119 61
-195 90 -44 17 -89 35 -100 40 -52 24 -267 90 -325 100 -94 17 -111 19 -255
20 -103 1 -156 -4 -255 -24 -163 -34 -182 -39 -262 -69 -38 -14 -68 -22 -68
-18 0 31 158 145 250 180 40 15 61 23 110 45 121 53 349 97 580 112 52 3 96 6
97 7 4 4 320 -2 349 -6z m-509 -317 c45 -12 127 -37 180 -57 54 -19 109 -38
123 -43 14 -4 54 -21 90 -38 36 -16 81 -37 100 -46 19 -8 62 -31 95 -51 33
-19 71 -40 85 -46 13 -5 27 -13 30 -17 3 -4 25 -18 50 -31 73 -39 221 -136
278 -183 75 -60 217 -203 263 -264 41 -53 68 -101 130 -227 26 -52 47 -81 65
-89 34 -16 57 -1 66 43 8 44 41 137 63 180 20 37 115 185 142 221 40 51 131
135 173 160 166 98 272 131 364 114 60 -12 65 -38 22 -135 -41 -93 -46 -147
-16 -178 12 -14 51 -29 112 -43 154 -36 163 -64 62 -192 -84 -106 -114 -166
-108 -221 7 -59 28 -83 130 -153 49 -33 96 -72 103 -86 13 -23 13 -30 -4 -68
-18 -40 -106 -120 -132 -120 -6 0 -16 -7 -23 -15 -7 -8 -19 -15 -27 -15 -27 0
-131 -84 -154 -124 -27 -48 -22 -108 15 -183 30 -59 32 -85 10 -107 -20 -21
-38 -20 -120 5 -80 25 -99 36 -182 107 -61 53 -123 138 -171 234 -13 26 -32
55 -42 64 -11 10 -19 21 -19 25 0 5 -17 35 -37 66 -21 32 -55 91 -76 132 -21
41 -48 82 -59 90 -12 8 -30 23 -39 32 -17 17 -20 16 -54 -24 -21 -23 -56 -62
-80 -87 -23 -25 -73 -81 -110 -125 -152 -178 -289 -295 -525 -449 -69 -45
-136 -79 -230 -116 -52 -21 -116 -47 -142 -59 -25 -12 -99 -30 -165 -42 -65
-11 -156 -28 -203 -37 -88 -18 -217 -21 -395 -7 -157 11 -342 60 -490 129 -27
13 -81 38 -120 56 -95 45 -163 92 -308 215 -126 109 -187 165 -222 206 -32 37
-155 228 -181 279 -24 49 -74 181 -74 197 0 6 33 16 73 22 123 20 186 -3 311
-113 35 -30 62 -46 71 -42 8 3 15 9 15 15 0 19 -131 130 -186 157 -62 30 -136
37 -237 22 -37 -6 -48 -5 -44 5 2 6 0 20 -4 29 -6 10 -5 19 1 23 5 3 10 13 10
22 0 20 56 138 84 178 12 17 28 44 36 60 8 17 28 48 43 70 15 22 44 64 64 94
77 117 270 283 423 366 19 10 37 21 40 24 33 39 304 154 413 177 40 8 95 20
122 25 145 30 376 25 522 -11z m966 -1945 c-14 -41 -28 -75 -33 -75 -4 0 -11
-11 -14 -25 -4 -14 -33 -52 -65 -85 -52 -52 -67 -61 -143 -84 -46 -14 -90 -26
-97 -26 -7 0 -33 -6 -59 -14 -26 -8 -92 -24 -147 -36 -55 -12 -116 -26 -135
-31 -144 -36 -219 -50 -347 -65 -68 -8 -170 16 -272 63 -111 53 -113 65 -7 58
176 -12 308 -7 411 15 55 12 136 28 180 36 168 29 430 134 552 222 17 12 36
22 41 22 6 0 17 6 24 13 22 21 120 87 129 87 3 0 -5 -34 -18 -75z"/>
<path d="M1652 3694 c-25 -44 21 -120 107 -175 94 -61 130 -17 39 45 -58 39
-86 73 -97 114 -9 32 -35 40 -49 16z"/>
<path d="M2130 3553 c0 -5 5 -26 11 -48 66 -237 38 -625 -65 -910 -8 -22 -12
-42 -10 -44 6 -6 6 -6 47 79 52 107 66 157 82 298 13 112 16 126 41 149 72 67
312 112 415 78 27 -9 49 -22 50 -28 6 -67 -19 -112 -99 -177 -96 -78 -91 -69
-85 -155 6 -73 5 -77 -22 -105 -39 -41 -75 -39 -139 7 -28 21 -53 40 -56 43
-3 3 -29 25 -59 50 l-53 44 7 -35 c4 -18 17 -45 29 -58 38 -42 144 -112 179
-118 45 -7 99 17 132 61 26 34 27 41 22 106 l-6 69 75 67 c106 94 134 157 100
223 -33 63 -229 67 -394 10 -48 -17 -94 -37 -103 -45 -14 -13 -16 -2 -22 118
-7 134 -28 272 -47 309 -10 19 -30 26 -30 12z"/>
<path d="M1620 3450 c0 -42 24 -96 48 -109 59 -32 175 23 147 69 -8 13 -62 13
-70 0 -3 -5 -17 -10 -30 -10 -17 0 -28 10 -42 38 -24 49 -53 56 -53 12z"/>
</g>
</svg>
