<?xml version="1.0" standalone="no"?>
<!DOCTYPE svg PUBLIC "-//W3C//DTD SVG 20010904//EN"
 "http://www.w3.org/TR/2001/REC-SVG-20010904/DTD/svg10.dtd">
<svg version="1.0" xmlns="http://www.w3.org/2000/svg"
 width="611.000000pt" height="611.000000pt" viewBox="0 0 611.000000 611.000000"
 preserveAspectRatio="xMidYMid meet">

<g transform="translate(0.000000,611.000000) scale(0.100000,-0.100000)"
fill="#000000" stroke="none">
<path d="M2745 4922 c-190 -66 -357 -190 -521 -385 -80 -94 -110 -147 -144
-248 -19 -54 -21 -77 -16 -143 4 -44 11 -86 17 -92 8 -10 2 -14 -23 -18 -48
-7 -175 -24 -232 -31 -88 -11 -411 -98 -430 -116 -6 -5 -16 -9 -23 -9 -18 0
-147 -61 -151 -72 -2 -4 -9 -8 -15 -8 -7 0 -43 -20 -80 -45 -38 -25 -72 -45
-75 -45 -6 0 -107 -72 -173 -123 -23 -18 -52 -36 -69 -44 -8 -4 -21 -12 -27
-19 -7 -7 -29 -22 -50 -35 -21 -13 -45 -31 -54 -41 -9 -10 -19 -18 -23 -18 -4
0 -43 -25 -86 -55 -43 -30 -83 -55 -87 -55 -5 0 -16 -8 -24 -17 -21 -23 -39
-38 -124 -98 -76 -54 -82 -59 -137 -113 -43 -41 -47 -65 -17 -90 12 -9 33 -29
48 -44 14 -14 46 -40 71 -57 80 -56 181 -121 185 -121 3 0 62 -37 133 -83 70
-45 141 -89 157 -97 17 -8 37 -20 45 -27 17 -13 194 -103 205 -103 3 0 27 -9
52 -21 25 -11 54 -21 64 -22 10 -1 19 -4 19 -8 0 -4 15 -10 32 -14 18 -4 58
-16 88 -27 30 -11 66 -22 80 -25 13 -2 29 -8 35 -13 12 -10 234 -69 285 -75
137 -18 402 -23 587 -11 l112 7 17 -28 c68 -111 145 -193 258 -276 110 -81
127 -91 186 -116 30 -12 64 -26 75 -31 58 -28 110 -39 147 -34 73 12 64 59
-24 131 -35 28 -95 82 -135 120 -80 76 -246 280 -238 293 3 4 31 16 63 26 31
10 73 26 92 36 19 10 54 18 77 18 23 0 45 5 48 10 3 6 16 10 28 10 12 0 94 21
182 46 88 25 187 53 220 61 33 9 62 19 65 23 3 4 21 11 40 15 19 4 58 18 85
30 28 12 68 28 90 35 22 7 42 16 45 19 5 7 55 31 105 51 17 7 38 16 47 21 10
5 22 9 28 9 11 0 112 44 153 66 27 15 29 15 50 -12 60 -76 132 -111 249 -121
57 -4 72 -2 102 16 73 46 54 101 -63 186 -44 32 -81 64 -81 71 0 6 19 22 43
34 23 12 44 25 47 29 10 12 115 87 132 94 42 15 168 107 232 169 39 37 72 65
74 63 3 -2 17 4 31 14 77 53 125 62 181 33 29 -14 173 -97 230 -132 50 -31
188 -90 265 -115 73 -23 109 -29 192 -29 56 -1 104 2 108 6 16 16 8 78 -13
101 -12 13 -22 28 -22 35 0 6 -26 33 -57 60 -32 26 -74 63 -93 82 -19 18 -69
55 -110 82 -107 70 -187 143 -195 177 -3 15 -1 68 5 117 11 99 13 110 35 344
9 91 19 197 24 235 10 85 5 285 -7 297 -9 9 -92 -90 -92 -110 0 -7 -4 -12 -9
-12 -9 0 -71 -85 -71 -97 0 -3 -10 -20 -23 -37 -30 -40 -106 -199 -114 -237
-3 -16 -10 -32 -14 -35 -5 -3 -9 -13 -9 -22 0 -9 -15 -48 -34 -87 -19 -38 -42
-97 -51 -130 -10 -33 -19 -66 -21 -74 -3 -9 -8 -10 -17 -4 -11 9 -51 22 -164
52 -24 7 -44 11 -45 10 -2 0 -21 6 -43 15 -39 14 -193 49 -360 81 -158 30
-173 34 -211 45 -22 6 -55 13 -74 16 -19 2 -51 9 -70 14 -55 14 -140 29 -205
35 -33 4 -76 11 -95 15 -67 17 -322 38 -522 42 -65 2 -118 6 -118 10 0 10
-105 118 -115 118 -12 0 -44 44 -45 62 0 10 -12 47 -26 83 -24 61 -26 75 -22
173 6 116 32 212 81 289 26 40 27 72 4 101 -15 19 -44 15 -162 -26z m32 -124
c-4 -13 -15 -54 -26 -93 -39 -136 -21 -313 41 -410 14 -23 48 -65 74 -94 69
-75 70 -79 32 -86 -18 -3 -60 -5 -93 -4 -55 1 -177 -7 -250 -16 -16 -2 -66 -6
-110 -9 -97 -7 -126 -10 -233 -26 -46 -7 -85 -10 -88 -7 -9 9 -6 87 5 154 15
97 85 210 198 326 67 68 202 177 240 193 17 8 35 19 38 25 12 18 123 66 159
68 14 1 17 -4 13 -21z m2546 -465 c-1 -27 -7 -84 -13 -128 -5 -44 -14 -114
-20 -155 -40 -309 -44 -367 -31 -426 14 -62 35 -87 122 -151 48 -35 80 -62
210 -180 l86 -78 -33 -3 c-66 -6 -340 85 -416 139 -14 11 -31 19 -36 19 -6 0
-38 16 -72 37 -34 20 -86 44 -115 54 -50 16 -57 17 -87 2 -18 -9 -47 -26 -65
-39 -17 -13 -37 -24 -44 -24 -11 0 -79 -50 -124 -92 -34 -32 -108 -83 -150
-103 -22 -11 -42 -22 -45 -25 -3 -3 -16 -10 -30 -17 -14 -6 -57 -34 -95 -63
-39 -29 -108 -73 -155 -96 -47 -24 -90 -48 -97 -54 -7 -6 -47 -29 -90 -51 -43
-23 -82 -44 -88 -49 -5 -4 -21 -11 -35 -15 -27 -8 -160 -69 -253 -116 -32 -16
-63 -29 -69 -29 -6 0 -19 -6 -27 -13 -9 -8 -36 -19 -61 -26 -25 -7 -64 -21
-87 -32 -24 -10 -47 -19 -53 -19 -5 0 -49 -12 -97 -26 -49 -15 -100 -29 -116
-31 -15 -3 -30 -9 -33 -14 -3 -5 -16 -9 -30 -9 -14 0 -35 -7 -47 -15 -12 -8
-49 -21 -82 -29 -89 -22 -189 -52 -213 -65 -30 -16 -169 -61 -232 -74 -58 -13
-718 -15 -775 -3 -16 4 -61 10 -100 15 -72 9 -145 28 -227 62 -25 10 -70 25
-100 33 -56 15 -128 43 -128 51 0 12 93 65 150 86 54 19 85 23 180 24 98 0
123 -4 173 -24 46 -19 60 -21 72 -11 65 54 -107 120 -279 106 -82 -6 -199 -38
-227 -62 -8 -8 -20 -14 -26 -14 -16 0 -73 -68 -73 -86 0 -20 -46 -11 -110 21
-25 12 -85 42 -135 65 -79 37 -201 105 -215 120 -3 3 -15 11 -27 18 -57 31
-68 38 -82 50 -8 8 -24 18 -35 23 -32 15 -84 48 -226 146 -34 23 -90 75 -90
84 0 9 136 119 147 119 7 0 34 20 126 96 9 7 21 14 26 14 5 0 11 4 13 8 3 10
195 132 206 132 4 0 21 12 38 28 17 15 47 36 67 46 21 11 37 23 37 28 0 4 5 8
10 8 6 0 32 15 58 33 26 17 58 38 70 45 12 6 32 18 44 25 12 6 31 20 42 29 11
10 28 20 38 24 10 3 18 9 18 13 0 4 20 15 45 25 25 11 45 23 45 28 0 5 6 8 13
6 6 -1 39 11 72 26 33 15 75 34 92 42 48 22 277 82 338 89 17 2 50 8 75 13 25
6 52 10 60 10 42 2 153 14 220 24 142 21 205 27 306 32 39 2 75 6 80 9 31 18
667 29 854 14 93 -7 369 -41 465 -57 111 -19 180 -32 195 -38 8 -3 28 -6 45
-8 32 -2 58 -8 260 -55 151 -35 146 -34 205 -44 25 -4 53 -12 63 -17 11 -5 31
-11 45 -14 33 -5 52 -9 72 -17 41 -15 59 -20 109 -32 30 -7 59 -11 66 -9 6 3
30 -2 54 -11 24 -8 47 -13 51 -10 14 9 100 161 100 178 0 9 5 19 10 22 6 3 10
13 10 22 0 8 16 59 37 112 20 53 41 110 47 126 20 52 120 225 130 225 1 0 0
-21 -1 -47z m-1068 -1499 l49 -57 -59 8 c-57 7 -115 37 -115 60 0 9 47 38 71
44 3 0 27 -24 54 -55z m-1627 -546 c6 -6 12 -18 12 -28 0 -9 9 -25 20 -35 11
-10 20 -22 20 -27 0 -13 79 -116 159 -206 35 -40 61 -75 59 -78 -7 -6 -92 32
-153 69 -72 44 -231 174 -259 211 -52 69 -52 72 14 87 75 18 112 20 128 7z"/>
<path d="M1494 3526 c-8 -22 35 -83 108 -154 111 -107 228 -160 236 -105 3 19
-8 28 -72 59 -56 27 -100 59 -171 126 -74 70 -96 86 -101 74z"/>
<path d="M1499 3230 c-1 -5 -2 -16 -3 -22 -4 -24 43 -106 72 -127 40 -28 104
-37 144 -20 39 15 48 26 48 58 0 25 -2 25 -97 5 -41 -8 -86 22 -113 77 -19 36
-48 53 -51 29z"/>
</g>
</svg>
