<?xml version="1.0" standalone="no"?>
<!DOCTYPE svg PUBLIC "-//W3C//DTD SVG 20010904//EN"
 "http://www.w3.org/TR/2001/REC-SVG-20010904/DTD/svg10.dtd">
<svg version="1.0" xmlns="http://www.w3.org/2000/svg"
 width="611.000000pt" height="611.000000pt" viewBox="0 0 611.000000 611.000000"
 preserveAspectRatio="xMidYMid meet">

<g transform="translate(0.000000,611.000000) scale(0.100000,-0.100000)"
fill="#000000" stroke="none">
<path d="M2045 4268 c-124 -8 -249 -23 -262 -31 -6 -4 -25 -9 -44 -12 -109
-16 -253 -67 -414 -145 -154 -75 -276 -157 -397 -264 -132 -118 -189 -200
-265 -385 -19 -48 -45 -108 -58 -136 -61 -137 -95 -305 -96 -476 0 -60 3 -114
6 -119 4 -6 10 -37 15 -69 23 -165 191 -403 383 -545 65 -47 95 -65 218 -127
20 -10 52 -21 70 -24 18 -3 38 -10 44 -15 5 -4 28 -11 50 -15 22 -4 57 -13 77
-20 20 -8 45 -13 55 -11 11 2 41 0 69 -5 58 -11 226 -12 619 -4 160 4 382 7
495 9 113 1 210 4 215 8 6 3 64 9 130 12 66 4 138 12 160 18 22 5 90 19 150
29 195 34 315 60 429 94 26 8 56 15 65 15 23 0 197 72 336 140 66 32 147 71
180 85 75 34 167 80 268 133 80 42 224 150 241 180 5 10 17 22 26 29 17 12 98
130 176 257 55 89 125 157 191 186 63 28 201 44 311 36 88 -6 116 -14 207 -57
47 -22 131 -23 158 -1 10 9 17 29 17 48 0 33 -54 194 -69 204 -4 3 -10 13 -14
22 -6 18 -149 128 -166 128 -5 0 -14 6 -18 13 -8 12 -48 37 -93 58 -14 6 -37
18 -52 25 -52 28 -208 38 -270 18 -11 -3 -18 0 -19 8 0 7 -6 47 -12 89 -19
111 -72 192 -162 245 -145 85 -203 97 -249 54 -14 -14 -26 -30 -26 -36 0 -6
-8 -18 -18 -28 -11 -9 -25 -35 -31 -59 -7 -23 -16 -49 -20 -57 -4 -8 -8 -47
-10 -86 -5 -126 46 -248 155 -370 l63 -71 -21 -69 c-12 -38 -35 -87 -51 -109
-80 -107 -242 -192 -343 -180 -61 8 -126 26 -164 45 -22 11 -45 20 -52 20 -7
0 -43 22 -79 49 -53 39 -77 67 -124 142 -31 52 -66 105 -76 119 -10 14 -35 50
-56 80 -62 91 -131 172 -206 239 -40 35 -107 96 -149 135 -42 39 -99 87 -125
106 -26 19 -57 43 -68 53 -11 10 -31 24 -45 31 -14 7 -54 30 -90 51 -36 21
-83 48 -105 61 -56 32 -175 94 -178 92 -1 0 -32 13 -69 31 -37 17 -73 31 -80
31 -7 0 -26 7 -43 16 -46 24 -200 60 -310 73 -125 15 -251 18 -380 9z m365
-108 c145 -25 264 -57 336 -91 23 -10 44 -19 48 -19 8 0 176 -77 196 -90 8 -5
38 -22 65 -38 81 -46 100 -57 105 -62 6 -6 21 -15 96 -59 28 -17 65 -44 82
-61 18 -16 35 -30 39 -30 5 0 40 -31 79 -68 109 -102 225 -206 240 -215 8 -4
14 -12 14 -16 0 -4 41 -49 90 -100 50 -51 90 -98 90 -105 0 -8 16 -36 35 -64
19 -28 37 -61 40 -74 3 -13 37 -56 76 -96 71 -74 175 -136 294 -177 71 -24
238 -21 270 4 5 5 25 12 43 16 17 3 32 11 32 16 0 5 16 15 35 23 19 8 35 20
35 25 0 6 5 11 11 11 15 0 77 55 106 94 32 44 83 153 83 177 0 11 5 29 11 40
6 12 8 37 4 59 -5 32 -12 41 -38 50 -40 14 -86 75 -139 186 -38 79 -41 89 -39
170 1 70 5 97 26 141 15 30 32 56 40 59 16 6 93 -32 152 -75 65 -47 84 -96 90
-226 6 -126 18 -155 62 -155 23 0 32 7 43 30 16 36 32 42 113 42 70 -1 131
-14 160 -36 11 -9 27 -16 36 -16 8 0 34 -16 56 -35 23 -19 45 -35 50 -35 14 0
112 -99 137 -138 13 -21 27 -57 31 -81 7 -40 6 -43 -11 -36 -92 37 -162 56
-237 63 -169 16 -320 -15 -419 -86 -52 -36 -140 -136 -165 -186 -68 -136 -222
-305 -346 -379 -43 -26 -81 -47 -85 -47 -4 0 -82 -39 -172 -86 -278 -146 -349
-174 -465 -185 -162 -15 -266 -18 -745 -23 -459 -5 -581 -10 -700 -26 -96 -13
-254 -15 -770 -11 -255 2 -476 7 -489 13 -14 5 -64 8 -113 7 -68 -1 -93 2
-113 15 -68 45 -219 222 -262 306 -10 19 -28 52 -41 73 -12 21 -20 42 -17 47
6 9 97 -28 103 -42 2 -5 9 -8 16 -8 7 0 34 -11 60 -25 68 -36 87 -33 169 32
74 59 165 123 175 123 13 0 52 45 52 60 0 20 -19 40 -38 40 -8 0 -33 -15 -56
-33 -23 -19 -52 -40 -65 -47 -13 -7 -57 -39 -98 -72 -82 -67 -76 -66 -188 -13
-38 19 -82 37 -97 40 -15 4 -32 13 -38 20 -10 12 -14 177 -6 235 22 146 39
225 61 280 98 246 195 423 279 505 47 46 165 143 215 178 25 17 48 34 51 38 4
6 185 98 235 119 108 47 226 86 305 100 36 6 72 14 80 17 8 3 40 8 70 10 30 3
57 7 60 9 7 8 422 2 470 -6z m1092 -2034 c-9 -5 -43 -11 -76 -13 -34 -3 -144
-13 -246 -25 -102 -11 -241 -26 -310 -33 -69 -8 -134 -16 -145 -18 -54 -13
-261 -20 -945 -32 -271 -5 -320 -4 -443 14 -76 11 -145 17 -153 14 -14 -5 -78
16 -114 38 -8 5 -30 17 -48 26 -17 9 -32 20 -32 25 0 11 178 0 211 -13 16 -6
233 -11 565 -12 518 -2 731 4 756 19 7 4 192 10 413 14 531 7 587 7 567 -4z
m111 7 c-7 -2 -21 -2 -30 0 -10 3 -4 5 12 5 17 0 24 -2 18 -5z m-33 -53 c0 -5
-4 -10 -10 -10 -5 0 -10 5 -10 10 0 6 5 10 10 10 6 0 10 -4 10 -10z m-55 -9
c-6 -4 -64 -18 -130 -31 -66 -12 -138 -26 -160 -30 -22 -4 -62 -12 -90 -18
-27 -6 -88 -13 -135 -17 -47 -4 -89 -9 -94 -12 -8 -6 -508 -20 -941 -28 -126
-3 -243 -7 -260 -10 -86 -15 -221 -7 -292 18 -55 19 -37 29 40 23 81 -7 416
-8 427 -1 4 2 121 5 261 6 252 2 547 13 604 23 33 6 213 26 260 29 17 1 35 5
40 9 6 3 78 11 160 18 83 7 166 16 185 20 48 11 136 12 125 1z m-2230 -81 c3
-5 1 -10 -4 -10 -6 0 -11 5 -11 10 0 6 2 10 4 10 3 0 8 -4 11 -10z m72 -16
c-3 -3 -12 -4 -19 -1 -8 3 -5 6 6 6 11 1 17 -2 13 -5z"/>
<path d="M1345 3613 c-29 -7 -101 -64 -119 -94 -11 -19 -12 -29 -4 -37 8 -8
22 -2 53 23 23 19 61 42 85 50 60 21 144 4 212 -42 51 -36 78 -37 78 -5 0 68
-188 133 -305 105z"/>
<path d="M1318 3370 c-36 -20 -55 -50 -43 -70 9 -14 31 -12 44 4 31 37 127 28
171 -15 31 -32 74 -38 84 -14 8 22 -12 51 -58 82 -52 37 -144 43 -198 13z"/>
<path d="M2230 2759 c-25 -5 -71 -8 -104 -7 -47 2 -61 -1 -70 -14 -20 -32 12
-49 100 -53 43 -2 84 1 90 6 20 16 26 -8 10 -38 -20 -40 -68 -83 -102 -92 -16
-4 -46 -4 -68 1 -68 15 -96 -10 -60 -57 12 -16 26 -20 77 -20 54 1 69 5 115
35 34 23 67 57 96 100 88 134 67 169 -84 139z"/>
</g>
</svg>
