<?xml version="1.0" standalone="no"?>
<!DOCTYPE svg PUBLIC "-//W3C//DTD SVG 20010904//EN"
 "http://www.w3.org/TR/2001/REC-SVG-20010904/DTD/svg10.dtd">
<svg version="1.0" xmlns="http://www.w3.org/2000/svg"
 width="611.000000pt" height="611.000000pt" viewBox="0 0 611.000000 611.000000"
 preserveAspectRatio="xMidYMid meet">

<g transform="translate(0.000000,611.000000) scale(0.100000,-0.100000)"
fill="#000000" stroke="none">
<path d="M2735 4580 c-213 -18 -322 -33 -393 -54 -9 -3 -28 -7 -42 -10 -74
-15 -222 -68 -307 -110 -29 -14 -57 -26 -62 -26 -5 0 -16 -6 -23 -13 -7 -7
-31 -23 -53 -37 -57 -33 -125 -107 -132 -142 -3 -18 -14 -33 -27 -38 -12 -4
-71 -38 -131 -75 -61 -37 -125 -76 -144 -87 -76 -43 -301 -248 -301 -274 0 -7
-3 -14 -7 -16 -22 -9 -140 -198 -228 -363 -41 -76 -62 -152 -47 -167 8 -8 8
-17 0 -31 -15 -28 -4 -77 42 -196 48 -122 102 -212 218 -360 32 -42 129 -141
137 -141 3 0 23 -15 43 -34 20 -19 60 -52 87 -73 45 -34 87 -69 119 -98 37
-35 317 -176 393 -198 29 -9 67 -22 85 -31 18 -8 60 -20 92 -26 49 -10 67 -20
103 -57 52 -53 122 -93 218 -124 59 -20 90 -24 200 -23 72 0 148 5 170 12 22
6 64 14 94 17 30 4 65 11 78 16 13 5 23 6 23 4 0 -2 12 0 28 6 15 6 50 15 77
19 28 5 61 12 75 15 80 18 112 26 180 40 99 22 206 74 253 124 73 78 140 224
153 336 4 31 12 55 18 55 17 0 203 191 327 334 57 67 81 88 89 79 4 -4 26 -43
49 -86 22 -43 62 -110 88 -149 43 -65 75 -117 107 -173 26 -47 106 -152 137
-180 55 -49 151 -115 168 -115 9 0 40 -9 70 -20 31 -12 80 -21 117 -22 54 -1
68 3 97 25 74 56 81 124 27 239 -16 34 -26 68 -22 80 6 24 65 68 166 123 91
49 137 89 176 153 48 78 41 146 -22 212 -36 38 -108 95 -108 85 0 -4 -20 10
-44 30 -40 32 -43 39 -36 64 13 48 50 104 113 175 35 40 49 149 24 193 -23 41
-86 77 -152 88 -55 8 -105 25 -105 34 0 5 13 37 29 73 54 118 50 178 -13 217
-108 67 -324 7 -521 -143 -104 -80 -247 -273 -305 -413 -18 -43 -33 -79 -35
-81 -1 -1 -15 23 -30 55 -47 98 -111 186 -198 269 -96 92 -183 166 -235 202
-90 60 -92 63 -83 80 10 20 -4 92 -49 242 -98 331 -153 415 -302 467 -66 23
-90 26 -248 28 -96 1 -215 -1 -265 -5z m427 -54 c55 -9 104 -30 150 -65 27
-19 48 -40 48 -45 0 -5 7 -18 17 -28 24 -26 60 -118 98 -244 32 -108 60 -252
51 -261 -2 -3 -50 23 -106 57 -152 92 -277 159 -355 191 -113 46 -157 62 -265
97 -181 59 -276 74 -455 74 -171 0 -357 -35 -518 -96 -61 -23 -66 -23 -57 -7
20 38 81 86 170 133 50 26 96 48 100 48 5 0 33 11 62 24 190 85 522 135 868
130 91 -2 177 -5 192 -8z m-667 -290 c39 -3 107 -15 150 -26 86 -22 334 -105
375 -125 14 -7 57 -28 95 -47 116 -57 230 -121 233 -130 2 -4 8 -8 13 -8 5 0
67 -36 137 -80 149 -94 280 -205 395 -335 68 -76 95 -116 148 -223 50 -102 70
-133 92 -143 31 -13 57 0 57 30 0 29 73 205 108 261 52 81 140 199 174 232 44
43 132 101 226 148 70 36 95 43 162 47 64 5 84 3 105 -11 34 -22 32 -52 -10
-142 -66 -140 -52 -161 138 -209 129 -33 127 -84 -11 -235 -12 -14 -34 -49
-48 -79 -46 -96 -16 -172 91 -235 69 -40 124 -91 126 -115 4 -53 -34 -107
-108 -151 -32 -19 -59 -38 -61 -42 -2 -5 -12 -8 -22 -8 -27 0 -126 -78 -156
-123 -33 -50 -29 -87 15 -181 35 -73 34 -100 -4 -118 -27 -12 -147 20 -205 55
-65 40 -155 126 -165 157 -4 11 -10 20 -14 20 -4 0 -19 21 -32 48 -13 26 -39
72 -58 102 -20 30 -41 65 -47 77 -7 12 -17 28 -23 35 -21 25 -60 87 -80 130
-12 24 -28 54 -35 67 -17 28 -96 103 -96 90 0 -9 -26 -39 -125 -145 -22 -24
-53 -60 -70 -80 -62 -78 -159 -180 -209 -221 -28 -23 -63 -53 -77 -66 -14 -13
-39 -33 -55 -43 -16 -11 -36 -24 -44 -31 -81 -64 -162 -120 -195 -135 -22 -10
-55 -28 -74 -39 -19 -11 -73 -36 -120 -55 -47 -19 -97 -41 -111 -48 -36 -19
-115 -42 -190 -55 -36 -6 -117 -20 -180 -32 -258 -47 -620 -13 -827 77 -17 8
-34 14 -37 14 -3 0 -61 27 -128 59 -125 60 -205 112 -320 210 -34 29 -85 72
-112 95 -115 96 -196 197 -299 371 -52 87 -117 265 -97 265 4 0 26 -7 49 -14
55 -20 111 -28 201 -28 87 0 112 4 235 34 93 23 145 49 145 74 0 19 -33 18
-99 -5 -114 -40 -186 -53 -296 -55 -131 -1 -209 16 -231 50 -14 21 -14 28 6
81 12 32 40 90 63 128 23 39 47 79 52 90 34 62 68 115 74 115 4 0 18 19 31 42
27 48 49 74 137 164 88 88 166 143 395 275 15 9 35 23 44 30 10 8 18 13 18 11
1 -4 29 6 96 35 87 39 166 60 295 82 172 29 213 30 390 17z m1127 -1913 c-5
-10 -12 -33 -15 -51 -9 -45 -68 -148 -110 -193 -34 -35 -131 -89 -161 -89 -8
0 -25 -4 -38 -9 -13 -5 -57 -16 -98 -26 -41 -9 -111 -25 -155 -35 -44 -10 -93
-21 -110 -25 -16 -3 -50 -10 -75 -16 -25 -6 -56 -12 -70 -15 -14 -2 -47 -10
-75 -16 -70 -17 -270 -16 -320 1 -111 38 -237 113 -172 102 29 -5 160 -11 262
-11 86 -1 147 5 215 20 52 11 131 27 175 35 91 16 169 40 296 91 92 36 233
106 259 128 8 7 35 24 60 38 25 14 62 40 84 57 44 35 61 40 48 14z"/>
<path d="M1394 3710 c-58 -29 -111 -88 -119 -132 -6 -31 -4 -38 8 -38 9 0 25
17 37 38 12 20 40 51 63 67 37 26 50 30 104 28 69 -1 133 -30 153 -69 15 -26
33 -36 55 -28 25 10 17 31 -33 82 -35 35 -60 52 -94 60 -69 17 -128 15 -174
-8z"/>
<path d="M1877 3654 c-3 -3 -2 -16 3 -28 18 -49 40 -243 40 -359 0 -173 -46
-427 -105 -579 -22 -56 2 -47 27 10 11 26 29 66 39 89 11 23 24 65 31 92 11
50 28 60 28 16 0 -27 86 -110 156 -151 37 -22 52 -25 89 -20 97 15 150 108
114 202 -10 27 -6 32 72 103 85 78 109 117 109 173 0 76 -63 104 -213 95 -102
-6 -237 -44 -281 -78 -18 -14 -26 -16 -27 -7 -7 157 -29 350 -45 401 -15 45
-23 54 -37 41z m505 -395 c59 -14 68 -24 61 -76 -6 -45 -43 -91 -123 -153 -25
-19 -48 -39 -52 -45 -4 -5 -5 -45 -1 -87 l6 -77 -33 -31 c-55 -52 -93 -38
-236 87 l-77 67 7 60 c3 34 9 81 12 105 9 67 52 98 188 134 98 26 181 31 248
16z"/>
<path d="M1438 3554 c-34 -18 -54 -52 -40 -66 7 -7 20 -2 40 12 36 27 83 22
119 -11 27 -26 56 -19 51 13 -4 28 -71 68 -113 67 -16 0 -42 -6 -57 -15z"/>
</g>
</svg>
