<?xml version="1.0" standalone="no"?>
<!DOCTYPE svg PUBLIC "-//W3C//DTD SVG 20010904//EN"
 "http://www.w3.org/TR/2001/REC-SVG-20010904/DTD/svg10.dtd">
<svg version="1.0" xmlns="http://www.w3.org/2000/svg"
 width="611.000000pt" height="611.000000pt" viewBox="0 0 611.000000 611.000000"
 preserveAspectRatio="xMidYMid meet">

<g transform="translate(0.000000,611.000000) scale(0.100000,-0.100000)"
fill="#000000" stroke="none">
<path d="M2800 4656 c-122 -43 -164 -61 -180 -80 -7 -9 -18 -16 -25 -16 -17 0
-145 -97 -210 -159 -122 -116 -204 -217 -239 -294 -44 -99 -59 -162 -52 -224
4 -32 7 -66 7 -75 0 -10 4 -20 10 -23 21 -13 6 -23 -43 -28 -136 -15 -286 -37
-316 -46 -18 -5 -36 -10 -40 -11 -39 -5 -286 -81 -296 -91 -6 -5 -17 -9 -26
-9 -9 0 -50 -17 -91 -39 -104 -53 -119 -62 -160 -93 -20 -16 -41 -28 -47 -28
-5 0 -55 -34 -110 -75 -55 -41 -105 -75 -111 -75 -6 0 -11 -4 -11 -10 0 -5 -5
-10 -11 -10 -10 0 -29 -13 -86 -60 -7 -6 -16 -10 -21 -10 -5 0 -17 -9 -27 -20
-10 -11 -22 -20 -27 -20 -20 0 -449 -321 -478 -357 -11 -14 -20 -33 -20 -42 0
-31 137 -139 316 -249 71 -43 171 -107 221 -141 51 -33 99 -61 107 -61 7 0 19
-6 25 -14 10 -12 172 -96 185 -96 3 0 30 -11 60 -25 30 -14 61 -25 68 -25 8 0
18 -4 24 -9 5 -6 21 -12 35 -14 32 -6 158 -46 181 -58 22 -11 153 -48 192 -54
16 -2 43 -9 60 -14 82 -26 481 -40 621 -22 107 13 128 10 144 -24 30 -66 157
-202 256 -276 93 -70 131 -91 254 -139 92 -37 122 -45 155 -40 37 4 41 8 44
35 3 29 -11 50 -50 80 -86 65 -233 214 -322 326 -11 13 -32 39 -48 57 -34 40
-35 49 -5 57 29 8 97 34 121 47 22 11 48 17 98 23 21 2 43 7 50 12 7 4 20 6
30 5 9 -2 19 2 23 8 3 5 16 10 28 10 12 0 83 18 157 41 74 22 142 41 150 43
59 11 87 20 104 35 10 9 20 15 22 13 6 -4 104 26 118 36 6 5 31 14 56 21 25 7
59 24 76 36 17 13 44 27 60 31 16 4 34 10 39 15 6 4 15 8 20 9 6 1 20 6 33 11
13 5 25 9 27 9 7 0 118 50 147 66 25 13 27 13 33 -6 8 -24 77 -81 125 -102 19
-9 60 -21 91 -27 92 -16 144 -3 175 45 16 23 16 27 -1 64 -12 26 -34 50 -66
71 -27 17 -65 44 -84 59 l-36 29 43 27 c44 28 121 84 147 106 8 7 33 22 55 33
55 28 124 72 152 99 12 11 47 45 77 74 30 28 59 52 65 52 7 0 36 15 65 34 64
41 99 42 172 1 28 -15 66 -36 85 -46 44 -24 67 -38 107 -66 17 -13 35 -23 40
-23 4 0 39 -16 76 -35 71 -37 234 -92 277 -94 79 -4 176 1 184 9 14 14 12 83
-2 88 -7 2 -21 21 -32 42 -11 21 -43 55 -72 76 -29 22 -65 53 -81 71 -15 17
-63 54 -106 82 -103 66 -188 144 -196 180 -3 16 -1 64 4 108 11 84 36 329 52
508 5 61 11 130 14 155 7 57 -5 220 -16 220 -5 0 -26 -24 -48 -52 -22 -29 -46
-60 -53 -68 -29 -35 -68 -89 -68 -95 0 -4 -13 -27 -30 -52 -16 -24 -30 -46
-30 -48 0 -3 -18 -43 -40 -90 -22 -47 -40 -93 -40 -103 0 -10 -4 -22 -8 -27
-4 -6 -14 -28 -21 -50 -7 -22 -20 -47 -28 -56 -15 -18 -63 -162 -63 -191 0
-10 -2 -18 -4 -18 -4 0 -64 19 -86 27 -14 6 -99 30 -230 66 -50 14 -140 33
-315 67 -33 6 -73 15 -90 20 -40 11 -183 42 -215 46 -14 2 -59 11 -100 20 -41
9 -86 17 -100 18 -55 6 -138 18 -185 26 -73 14 -406 40 -505 40 l-85 0 -84 81
c-60 58 -86 91 -93 117 -5 21 -17 53 -26 72 -13 27 -17 62 -16 155 0 102 4
131 27 196 14 42 37 94 51 114 28 41 27 79 -3 102 -22 17 -23 17 -131 -21z m7
-128 c-3 -13 -14 -54 -24 -93 -28 -101 -29 -229 -2 -318 20 -70 38 -98 139
-221 23 -27 39 -50 38 -51 -2 -2 -72 -6 -157 -9 -85 -4 -186 -11 -225 -16 -39
-5 -115 -12 -170 -15 -54 -3 -103 -8 -108 -11 -5 -3 -26 -7 -46 -9 -20 -1 -51
-6 -69 -10 -30 -7 -32 -6 -35 26 -9 102 45 270 110 339 13 14 29 36 37 50 18
33 218 216 255 234 21 9 50 27 85 51 38 26 142 72 169 74 4 1 6 -9 3 -21z
m2548 -487 c-2 -14 -9 -66 -15 -116 -6 -49 -15 -119 -20 -155 -34 -237 -44
-368 -31 -425 12 -53 55 -115 80 -115 4 0 17 -8 28 -17 12 -10 38 -31 59 -48
21 -16 45 -37 53 -45 9 -9 55 -51 104 -95 48 -43 87 -81 87 -84 0 -8 -64 -6
-100 3 -98 23 -222 73 -389 158 -107 54 -204 98 -216 98 -20 0 -58 -17 -145
-66 -19 -10 -39 -23 -46 -29 -6 -5 -29 -24 -50 -41 -22 -18 -55 -46 -74 -63
-19 -16 -60 -43 -90 -58 -75 -37 -179 -101 -215 -132 -34 -30 -48 -38 -165
-99 -47 -24 -87 -47 -90 -52 -3 -4 -25 -17 -50 -29 -25 -12 -65 -32 -90 -45
-25 -13 -70 -34 -100 -47 -30 -13 -62 -29 -71 -36 -8 -7 -21 -13 -28 -13 -7 0
-50 -18 -96 -40 -46 -22 -88 -40 -93 -40 -6 0 -12 -3 -14 -7 -4 -11 -358 -128
-400 -133 -11 -1 -89 -28 -113 -39 -34 -15 -119 -40 -163 -47 -23 -4 -45 -11
-48 -15 -3 -5 -14 -9 -25 -9 -11 0 -44 -11 -72 -24 -52 -24 -167 -63 -216 -74
-46 -9 -667 -17 -731 -8 -104 13 -130 19 -130 31 0 7 21 62 46 121 25 60 66
172 91 249 25 77 49 149 54 160 15 36 29 99 29 134 0 33 0 33 -37 26 -21 -3
-56 -15 -78 -25 -22 -10 -62 -28 -90 -40 -74 -32 -147 -67 -376 -179 -114 -56
-214 -101 -222 -101 -9 0 -18 -4 -21 -9 -4 -5 -27 -19 -54 -31 -26 -12 -61
-28 -79 -37 -17 -8 -42 -13 -55 -10 -13 4 -72 38 -133 77 -60 38 -120 74 -132
79 -11 6 -24 15 -28 20 -3 6 -15 11 -26 11 -10 0 -19 4 -19 9 0 6 -11 16 -25
23 -58 31 -164 101 -180 118 -10 11 -24 20 -30 20 -7 0 -24 15 -39 34 l-26 35
41 35 c23 19 60 47 83 63 43 29 113 81 131 98 7 6 28 21 48 35 20 14 37 28 37
33 0 4 5 7 12 7 6 0 26 11 44 25 18 14 36 25 40 25 4 0 22 11 40 25 18 14 37
25 41 25 5 0 24 13 43 30 19 16 38 29 42 30 4 0 40 22 80 48 40 27 89 57 108
68 19 10 37 22 38 27 2 4 8 7 13 7 5 0 30 15 56 33 27 19 64 41 83 51 19 9 42
21 50 26 14 9 90 43 165 75 32 13 144 49 160 51 6 0 17 4 25 7 26 10 144 39
160 39 8 0 31 4 50 9 19 4 62 11 95 14 33 3 85 8 115 11 30 2 84 9 120 15 78
13 109 16 220 24 47 3 126 10 175 15 181 18 233 21 370 22 176 1 533 -9 543
-15 4 -3 41 -8 82 -11 66 -6 280 -37 350 -51 58 -11 147 -26 168 -28 12 -1 22
-5 22 -8 0 -3 24 -9 53 -12 28 -3 63 -9 77 -12 85 -22 274 -64 315 -71 17 -3
37 -6 45 -8 8 -1 28 -8 43 -14 16 -7 35 -12 42 -12 16 0 99 -26 130 -40 11 -5
54 -14 95 -20 41 -5 87 -12 102 -16 24 -5 29 -1 49 37 12 24 30 55 40 69 10
14 32 68 50 120 63 189 111 301 167 389 35 55 55 56 47 2z m-3509 -1392 c-21
-49 -50 -78 -63 -65 -2 2 1 33 8 70 10 62 13 66 43 74 41 11 44 -7 12 -79z
m-96 -30 c-5 -46 -10 -87 -10 -91 0 -8 -44 9 -119 45 -47 23 -65 47 -35 47 10
0 25 7 34 15 19 17 133 76 138 71 1 -2 -2 -41 -8 -87z m2534 -55 c27 -30 47
-57 45 -59 -2 -1 -28 1 -57 5 -49 8 -112 41 -112 60 0 4 17 17 38 28 20 12 37
21 38 21 0 1 22 -24 48 -55z m-2738 19 c-2 -10 -15 -66 -27 -126 l-22 -107
-26 23 c-14 13 -54 43 -88 67 -35 24 -63 46 -63 50 0 11 59 45 106 61 22 8 55
22 74 31 45 22 52 22 46 1z m85 -45 l47 -22 6 -65 c4 -36 9 -83 13 -103 l6
-38 -74 0 c-41 0 -85 -6 -98 -13 -23 -11 -25 -17 -24 -94 0 -99 0 -99 -122
-53 -44 16 -88 30 -99 30 -13 0 -16 5 -12 16 3 9 16 69 27 133 11 64 22 118
25 120 2 2 18 -8 36 -23 85 -69 150 -118 153 -115 2 2 8 27 13 54 16 81 47
195 52 195 3 0 26 -10 51 -22z m179 3 c0 -15 -74 -231 -77 -227 -3 3 -9 39
-14 81 -4 42 -11 85 -14 96 -5 16 -2 18 24 13 26 -5 31 -3 36 18 4 15 13 24
26 24 10 0 19 -2 19 -5z m-514 -88 c-7 -32 -26 -152 -32 -203 -3 -19 -9 -39
-13 -43 -13 -13 -125 21 -220 66 l-83 40 23 18 c13 10 28 19 32 19 4 0 58 25
121 55 62 30 118 55 124 55 7 0 12 5 12 10 0 6 9 10 21 10 17 0 20 -5 15 -27z
m414 -182 c0 -5 -17 -51 -37 -101 l-36 -92 -41 5 c-49 7 -64 26 -61 75 2 20 4
56 4 80 l1 42 85 0 c47 0 85 -4 85 -9z m952 -268 c11 -26 86 -142 99 -153 3
-3 24 -30 46 -60 22 -30 59 -75 82 -100 22 -25 36 -46 31 -48 -9 -3 -78 27
-115 50 -107 68 -151 101 -220 163 -44 40 -88 87 -98 104 l-18 31 28 11 c15 6
53 14 83 18 30 5 58 9 63 10 4 0 13 -11 19 -26z"/>
<path d="M1263 3298 c-5 -7 -22 -35 -38 -63 -16 -27 -52 -81 -81 -120 -55 -74
-104 -159 -104 -181 0 -25 19 -15 36 18 9 18 50 77 91 131 75 100 133 194 133
215 0 16 -25 15 -37 0z"/>
<path d="M1300 2989 c-25 -34 -53 -70 -62 -81 -10 -11 -27 -40 -39 -65 -17
-36 -19 -49 -10 -69 6 -13 18 -24 28 -24 17 0 73 47 73 62 0 5 9 19 20 31 91
99 115 154 84 188 -27 30 -46 22 -94 -42z"/>
</g>
</svg>
